# xmcd CD database file
#
# Track frame offsets:
#	150
#	23031
#	38181
#	63536
#	81081
#	102531
#	131031
#	161331
#	178056
#	193956
#	211136
#	226506
#
# Disc length: 3690 seconds
#
# Revision: 0
# Processed by: cddbd v1.5.2PL0 Copyright (c) Steve Scherf et al.
# Submitted via: CDex 1.51
#
DISCID=9e0e680c
DTITLE=Mel Solomon - Never Too Late
DYEAR=2007
DGENRE=Blues
TTITLE0=Wee Baby Blues
TTITLE1=Open Up Your Back Door
TTITLE2=Moving To The Country
TTITLE3=Further On Up The Road
TTITLE4=Mother-In-Law Blues
TTITLE5=Nobody Loves Me But My Mother 
TTITLE6=Hello Stranger
TTITLE7=Hey Hey Hey Hey
TTITLE8=Woke Up This Morning
TTITLE9=Kitty Oh
TTITLE10=If You Love Me Like You Say
TTITLE11=Everyday I Have The Blues
EXTD=YEAR: 2007
EXTT0=
EXTT1=
EXTT2=
EXTT3=
EXTT4=
EXTT5=
EXTT6=
EXTT7=
EXTT8=
EXTT9=
EXTT10=
EXTT11=
PLAYORDER=
